<?xml version="1.0" encoding="UTF-8" standalone="no"?>
<!-- Created with Inkscape (http://www.inkscape.org/) -->

<svg
   xmlns:dc="http://purl.org/dc/elements/1.1/"
   xmlns:cc="http://creativecommons.org/ns#"
   xmlns:rdf="http://www.w3.org/1999/02/22-rdf-syntax-ns#"
   xmlns:svg="http://www.w3.org/2000/svg"
   xmlns="http://www.w3.org/2000/svg"
   xmlns:sodipodi="http://sodipodi.sourceforge.net/DTD/sodipodi-0.dtd"
   xmlns:inkscape="http://www.inkscape.org/namespaces/inkscape"
   width="210mm"
   height="297mm"
   viewBox="0 0 210 297"
   version="1.1"
   id="svg8"
   inkscape:version="0.92.1 r15371"
   sodipodi:docname="TEXTO LABEL.svg">
  <defs
     id="defs2" />
  <sodipodi:namedview
     id="base"
     pagecolor="#ffffff"
     bordercolor="#666666"
     borderopacity="1.0"
     inkscape:pageopacity="0.0"
     inkscape:pageshadow="2"
     inkscape:zoom="1.979899"
     inkscape:cx="126.80363"
     inkscape:cy="1130.5188"
     inkscape:document-units="mm"
     inkscape:current-layer="layer1"
     showgrid="false"
     inkscape:window-width="1280"
     inkscape:window-height="971"
     inkscape:window-x="-8"
     inkscape:window-y="41"
     inkscape:window-maximized="1" />
  <metadata
     id="metadata5">
    <rdf:RDF>
      <cc:Work
         rdf:about="">
        <dc:format>image/svg+xml</dc:format>
        <dc:type
           rdf:resource="http://purl.org/dc/dcmitype/StillImage" />
        <dc:title></dc:title>
      </cc:Work>
    </rdf:RDF>
  </metadata>
  <g
     inkscape:label="Layer 1"
     inkscape:groupmode="layer"
     id="layer1">
    <g
       aria-label="PABLO LANDÃBURU
KIRCHENWEG 20
90419 NUREMBERG
SOFTMAKER GmbH"
       transform="matrix(0.1569143,0,0,0.1569143,-22.313701,-26.214403)"
       style="font-style:normal;font-weight:normal;font-size:40px;line-height:1.25;font-family:sans-serif;letter-spacing:0px;word-spacing:0px;fill:#000000;fill-opacity:1;stroke:none"
       id="flowRoot3680">
      <path
         d="m 142.20313,174.90216 v 23.008 h 4.224 v -7.904 l 0.096,0.032 14.24,-0.032 c 2.464,0 4.48,-2.016 4.48,-4.448 v -6.208 c 0,-2.432 -2.016,-4.448 -4.48,-4.448 z m 18.784,10.656 c 0,0.128 -0.096,0.224 -0.224,0.224 h -14.112 c -0.128,0 -0.224,-0.096 -0.224,-0.224 v -6.208 c 0,-0.128 0.096,-0.224 0.224,-0.224 h 14.112 c 0.128,0 0.224,0.096 0.224,0.224 z"
         style="font-style:normal;font-variant:normal;font-weight:bold;font-stretch:normal;font-size:32px;font-family:Orbitron;-inkscape-font-specification:'Orbitron Bold';text-align:center;text-anchor:middle"
         id="path3698"
         inkscape:connector-curvature="0" />
      <path
         d="m 172.02763,174.87016 c -2.464,0 -4.448,1.984 -4.448,4.448 v 18.592 h 4.224 v -7.744 h 14.56 v 7.744 h 4.256 v -18.592 c 0,-2.464 -2.016,-4.448 -4.48,-4.448 z m -0.224,11.072 v -6.624 c 0,-0.128 0.096,-0.224 0.224,-0.224 h 14.112 c 0.128,0 0.224,0.096 0.224,0.224 v 6.624 z"
         style="font-style:normal;font-variant:normal;font-weight:bold;font-stretch:normal;font-size:32px;font-family:Orbitron;-inkscape-font-specification:'Orbitron Bold';text-align:center;text-anchor:middle"
         id="path3700"
         inkscape:connector-curvature="0" />
      <path
         d="m 216.47363,179.31816 c 0,-2.464 -2.016,-4.448 -4.448,-4.448 h -17.664 v 23.04 h 18.56 c 2.464,0 4.48,-1.984 4.48,-4.448 v -4.96 c 0,-1.152 -0.512,-2.272 -1.248,-3.04 0.224,-0.48 0.32,-1.024 0.32,-1.632 z m -4.448,-0.224 c 0.096,0 0.192,0.096 0.192,0.224 v 4.512 c 0,0.128 -0.096,0.224 -0.192,0.224 h -13.216 c -0.128,0 -0.224,-0.096 -0.224,-0.224 v -4.512 c 0,-0.128 0.096,-0.224 0.224,-0.224 z m 1.12,14.368 c 0,0.128 -0.096,0.224 -0.224,0.224 h -14.112 c -0.128,0 -0.224,-0.096 -0.224,-0.224 v -4.96 c 0,-0.128 0.096,-0.192 0.224,-0.192 h 14.112 c 0.128,0 0.224,0.064 0.224,0.192 z"
         style="font-style:normal;font-variant:normal;font-weight:bold;font-stretch:normal;font-size:32px;font-family:Orbitron;-inkscape-font-specification:'Orbitron Bold';text-align:center;text-anchor:middle"
         id="path3702"
         inkscape:connector-curvature="0" />
      <path
         d="m 220.92263,197.91016 h 23.04 v -4.224 h -18.816 v -18.848 h -4.224 z"
         style="font-style:normal;font-variant:normal;font-weight:bold;font-stretch:normal;font-size:32px;font-family:Orbitron;-inkscape-font-specification:'Orbitron Bold';text-align:center;text-anchor:middle"
         id="path3704"
         inkscape:connector-curvature="0" />
      <path
         d="m 250.21213,174.87016 c -2.464,0 -4.448,1.984 -4.448,4.448 v 14.144 c 0,2.464 1.984,4.448 4.448,4.448 h 14.144 c 2.432,0 4.448,-1.984 4.448,-4.448 v -14.144 c 0,-2.464 -2.016,-4.448 -4.448,-4.448 z m 0,18.816 c -0.128,0 -0.224,-0.096 -0.224,-0.224 v -14.144 c 0,-0.128 0.096,-0.224 0.224,-0.224 h 14.144 c 0.096,0 0.192,0.096 0.192,0.224 v 14.144 c 0,0.128 -0.096,0.224 -0.192,0.224 z"
         style="font-style:normal;font-variant:normal;font-weight:bold;font-stretch:normal;font-size:32px;font-family:Orbitron;-inkscape-font-specification:'Orbitron Bold';text-align:center;text-anchor:middle"
         id="path3706"
         inkscape:connector-curvature="0" />
      <path
         d="m 282.23513,197.91016 h 23.04 v -4.224 h -18.816 v -18.848 h -4.224 z"
         style="font-style:normal;font-variant:normal;font-weight:bold;font-stretch:normal;font-size:32px;font-family:Orbitron;-inkscape-font-specification:'Orbitron Bold';text-align:center;text-anchor:middle"
         id="path3708"
         inkscape:connector-curvature="0" />
      <path
         d="m 311.65263,174.87016 c -2.464,0 -4.448,1.984 -4.448,4.448 v 18.592 h 4.224 v -7.744 h 14.56 v 7.744 h 4.256 v -18.592 c 0,-2.464 -2.016,-4.448 -4.48,-4.448 z m -0.224,11.072 v -6.624 c 0,-0.128 0.096,-0.224 0.224,-0.224 h 14.112 c 0.128,0 0.224,0.096 0.224,0.224 v 6.624 z"
         style="font-style:normal;font-variant:normal;font-weight:bold;font-stretch:normal;font-size:32px;font-family:Orbitron;-inkscape-font-specification:'Orbitron Bold';text-align:center;text-anchor:middle"
         id="path3710"
         inkscape:connector-curvature="0" />
      <path
         d="m 352.67463,191.76616 -14.176,-16.896 h -4.608 v 23.04 h 4.224 v -16.896 l 14.208,16.896 h 4.608 v -23.04 h -4.256 z"
         style="font-style:normal;font-variant:normal;font-weight:bold;font-stretch:normal;font-size:32px;font-family:Orbitron;-inkscape-font-specification:'Orbitron Bold';text-align:center;text-anchor:middle"
         id="path3712"
         inkscape:connector-curvature="0" />
      <path
         d="m 360.57963,174.87016 v 23.04 h 18.56 c 2.464,0 4.48,-1.984 4.48,-4.448 v -14.144 c 0,-2.464 -2.016,-4.448 -4.48,-4.448 z m 18.784,18.592 c 0,0.128 -0.096,0.224 -0.224,0.224 h -14.112 c -0.128,0 -0.224,-0.096 -0.224,-0.224 v -14.144 c 0,-0.128 0.096,-0.224 0.224,-0.224 h 14.112 c 0.128,0 0.224,0.096 0.224,0.224 z"
         style="font-style:normal;font-variant:normal;font-weight:bold;font-stretch:normal;font-size:32px;font-family:Orbitron;-inkscape-font-specification:'Orbitron Bold';text-align:center;text-anchor:middle"
         id="path3714"
         inkscape:connector-curvature="0" />
      <path
         d="m 391.71513,174.87016 c -2.464,0 -4.448,1.984 -4.448,4.448 v 18.592 h 4.224 v -7.744 h 14.56 v 7.744 h 4.256 v -18.592 c 0,-2.464 -2.016,-4.448 -4.48,-4.448 z m -0.224,11.072 v -6.624 c 0,-0.128 0.096,-0.224 0.224,-0.224 h 14.112 c 0.128,0 0.224,0.096 0.224,0.224 v 6.624 z m 4.928,-12.928 h 4.256 l 1.472,-5.856 h -4.256 z"
         style="font-style:normal;font-variant:normal;font-weight:bold;font-stretch:normal;font-size:32px;font-family:Orbitron;-inkscape-font-specification:'Orbitron Bold';text-align:center;text-anchor:middle"
         id="path3716"
         inkscape:connector-curvature="0" />
      <path
         d="m 436.16113,179.31816 c 0,-2.464 -2.016,-4.448 -4.448,-4.448 h -17.664 v 23.04 h 18.56 c 2.464,0 4.48,-1.984 4.48,-4.448 v -4.96 c 0,-1.152 -0.512,-2.272 -1.248,-3.04 0.224,-0.48 0.32,-1.024 0.32,-1.632 z m -4.448,-0.224 c 0.096,0 0.192,0.096 0.192,0.224 v 4.512 c 0,0.128 -0.096,0.224 -0.192,0.224 h -13.216 c -0.128,0 -0.224,-0.096 -0.224,-0.224 v -4.512 c 0,-0.128 0.096,-0.224 0.224,-0.224 z m 1.12,14.368 c 0,0.128 -0.096,0.224 -0.224,0.224 h -14.112 c -0.128,0 -0.224,-0.096 -0.224,-0.224 v -4.96 c 0,-0.128 0.096,-0.192 0.224,-0.192 h 14.112 c 0.128,0 0.224,0.064 0.224,0.192 z"
         style="font-style:normal;font-variant:normal;font-weight:bold;font-stretch:normal;font-size:32px;font-family:Orbitron;-inkscape-font-specification:'Orbitron Bold';text-align:center;text-anchor:middle"
         id="path3718"
         inkscape:connector-curvature="0" />
      <path
         d="m 459.29813,193.46216 c 0,0.128 -0.096,0.224 -0.192,0.224 h -14.144 c -0.128,0 -0.224,-0.096 -0.224,-0.224 v -18.592 h -4.224 v 18.592 c 0,2.464 1.984,4.448 4.448,4.448 h 14.144 c 2.432,0 4.448,-1.984 4.448,-4.448 v -18.592 h -4.256 z"
         style="font-style:normal;font-variant:normal;font-weight:bold;font-stretch:normal;font-size:32px;font-family:Orbitron;-inkscape-font-specification:'Orbitron Bold';text-align:center;text-anchor:middle"
         id="path3720"
         inkscape:connector-curvature="0" />
      <path
         d="m 490.08613,179.35016 c 0,-2.432 -2.016,-4.448 -4.48,-4.448 h -18.56 v 23.008 h 4.224 v -7.904 h 0.096 7.456 l 6.656,7.904 h 4.608 v -1.088 l -5.728,-6.816 h 1.248 c 2.464,0 4.48,-2.016 4.48,-4.448 z m -18.592,6.432 c -0.128,0 -0.224,-0.096 -0.224,-0.224 v -6.208 c 0,-0.128 0.096,-0.224 0.224,-0.224 h 14.112 c 0.128,0 0.224,0.096 0.224,0.224 v 6.208 c 0,0.128 -0.096,0.224 -0.224,0.224 z"
         style="font-style:normal;font-variant:normal;font-weight:bold;font-stretch:normal;font-size:32px;font-family:Orbitron;-inkscape-font-specification:'Orbitron Bold';text-align:center;text-anchor:middle"
         id="path3722"
         inkscape:connector-curvature="0" />
      <path
         d="m 512.17313,193.46216 c 0,0.128 -0.096,0.224 -0.192,0.224 h -14.144 c -0.128,0 -0.224,-0.096 -0.224,-0.224 v -18.592 h -4.224 v 18.592 c 0,2.464 1.984,4.448 4.448,4.448 h 14.144 c 2.432,0 4.448,-1.984 4.448,-4.448 v -18.592 h -4.256 z"
         style="font-style:normal;font-variant:normal;font-weight:bold;font-stretch:normal;font-size:32px;font-family:Orbitron;-inkscape-font-specification:'Orbitron Bold';text-align:center;text-anchor:middle"
         id="path3724"
         inkscape:connector-curvature="0" />
      <path
         d="m 190.89688,224.87016 c -2.528,3.072 -5.312,6.336 -7.872,9.408 h -5.44 v -9.408 h -4.256 v 23.04 h 4.256 v -9.408 h 5.44 l 7.872,9.408 h 4.64 v -1.12 l -8.704,-10.4 8.704,-10.4 v -1.12 z"
         style="font-style:normal;font-variant:normal;font-weight:bold;font-stretch:normal;font-size:32px;font-family:Orbitron;-inkscape-font-specification:'Orbitron Bold';text-align:center;text-anchor:middle"
         id="path3726"
         inkscape:connector-curvature="0" />
      <path
         d="m 198.82888,247.91016 h 4.224 v -23.04 h -4.224 z"
         style="font-style:normal;font-variant:normal;font-weight:bold;font-stretch:normal;font-size:32px;font-family:Orbitron;-inkscape-font-specification:'Orbitron Bold';text-align:center;text-anchor:middle"
         id="path3728"
         inkscape:connector-curvature="0" />
      <path
         d="m 228.86738,229.35016 c 0,-2.432 -2.016,-4.448 -4.48,-4.448 h -18.56 v 23.008 h 4.224 v -7.904 h 0.096 7.456 l 6.656,7.904 h 4.608 v -1.088 l -5.728,-6.816 h 1.248 c 2.464,0 4.48,-2.016 4.48,-4.448 z m -18.592,6.432 c -0.128,0 -0.224,-0.096 -0.224,-0.224 v -6.208 c 0,-0.128 0.096,-0.224 0.224,-0.224 h 14.112 c 0.128,0 0.224,0.096 0.224,0.224 v 6.208 c 0,0.128 -0.096,0.224 -0.224,0.224 z"
         style="font-style:normal;font-variant:normal;font-weight:bold;font-stretch:normal;font-size:32px;font-family:Orbitron;-inkscape-font-specification:'Orbitron Bold';text-align:center;text-anchor:middle"
         id="path3730"
         inkscape:connector-curvature="0" />
      <path
         d="m 255.21038,229.09416 v -4.224 h -18.528 c -2.464,0 -4.448,1.984 -4.448,4.448 v 14.144 c 0,2.464 1.984,4.448 4.448,4.448 h 18.528 v -4.224 h -18.528 c -0.128,0 -0.224,-0.096 -0.224,-0.224 v -14.144 c 0,-0.128 0.096,-0.224 0.224,-0.224 z"
         style="font-style:normal;font-variant:normal;font-weight:bold;font-stretch:normal;font-size:32px;font-family:Orbitron;-inkscape-font-specification:'Orbitron Bold';text-align:center;text-anchor:middle"
         id="path3732"
         inkscape:connector-curvature="0" />
      <path
         d="m 277.90688,224.87016 v 9.408 h -15.104 v -9.408 h -4.224 v 23.04 h 4.224 v -9.408 h 15.104 v 9.408 h 4.224 v -23.04 z"
         style="font-style:normal;font-variant:normal;font-weight:bold;font-stretch:normal;font-size:32px;font-family:Orbitron;-inkscape-font-specification:'Orbitron Bold';text-align:center;text-anchor:middle"
         id="path3734"
         inkscape:connector-curvature="0" />
      <path
         d="m 307.04488,224.87016 h -21.184 v 23.04 h 21.184 v -4.224 h -16.928 v -5.184 h 13.632 v -4.224 h -13.632 v -5.184 h 16.928 z"
         style="font-style:normal;font-variant:normal;font-weight:bold;font-stretch:normal;font-size:32px;font-family:Orbitron;-inkscape-font-specification:'Orbitron Bold';text-align:center;text-anchor:middle"
         id="path3736"
         inkscape:connector-curvature="0" />
      <path
         d="m 329.08088,241.76616 -14.176,-16.896 h -4.608 v 23.04 h 4.224 v -16.896 l 14.208,16.896 h 4.608 v -23.04 h -4.256 z"
         style="font-style:normal;font-variant:normal;font-weight:bold;font-stretch:normal;font-size:32px;font-family:Orbitron;-inkscape-font-specification:'Orbitron Bold';text-align:center;text-anchor:middle"
         id="path3738"
         inkscape:connector-curvature="0" />
      <path
         d="m 367.12988,224.87016 -5.568,15.2 -5.568,-15.2 h -4.128 l -5.568,15.2 -5.568,-15.2 h -4.48 l 8.384,23.04 h 3.296 c 1.92,-5.344 4.032,-10.976 5.984,-16.352 l 5.984,16.352 h 3.328 l 8.384,-23.04 z"
         style="font-style:normal;font-variant:normal;font-weight:bold;font-stretch:normal;font-size:32px;font-family:Orbitron;-inkscape-font-specification:'Orbitron Bold';text-align:center;text-anchor:middle"
         id="path3740"
         inkscape:connector-curvature="0" />
      <path
         d="m 395.91988,224.87016 h -21.184 v 23.04 h 21.184 v -4.224 h -16.928 v -5.184 h 13.632 v -4.224 h -13.632 v -5.184 h 16.928 z"
         style="font-style:normal;font-variant:normal;font-weight:bold;font-stretch:normal;font-size:32px;font-family:Orbitron;-inkscape-font-specification:'Orbitron Bold';text-align:center;text-anchor:middle"
         id="path3742"
         inkscape:connector-curvature="0" />
      <path
         d="m 422.21188,229.31816 c 0,-2.464 -2.016,-4.448 -4.48,-4.448 h -14.112 c -2.464,0 -4.448,1.984 -4.448,4.448 v 14.144 c 0,2.464 1.984,4.448 4.448,4.448 h 14.112 c 2.464,0 4.48,-1.984 4.48,-4.448 v -8.576 h -9.472 v 4.224 h 5.216 v 4.352 c 0,0.128 -0.096,0.224 -0.224,0.224 h -14.112 c -0.128,0 -0.224,-0.096 -0.224,-0.224 v -14.144 c 0,-0.128 0.096,-0.224 0.224,-0.224 h 14.112 c 0.128,0 0.224,0.096 0.224,0.224 v 1.792 h 4.256 z"
         style="font-style:normal;font-variant:normal;font-weight:bold;font-stretch:normal;font-size:32px;font-family:Orbitron;-inkscape-font-specification:'Orbitron Bold';text-align:center;text-anchor:middle"
         id="path3744"
         inkscape:connector-curvature="0" />
      <path
         d="m 440.05738,224.87016 c -2.432,0 -4.416,1.984 -4.416,4.416 v 1.728 h 4.192 v -1.728 c 0,-0.128 0.096,-0.224 0.224,-0.224 h 13.984 c 0.128,0 0.224,0.096 0.224,0.224 v 5.12 c 0,0.096 -0.096,0.192 -0.224,0.192 h -13.984 c -2.432,0 -4.416,1.984 -4.416,4.416 v 8.896 h 22.816 v -4.192 h -18.4 c -0.128,0 -0.224,-0.096 -0.224,-0.224 v -4.48 c 0,-0.128 0.096,-0.192 0.224,-0.192 h 13.984 c 2.432,0 4.416,-1.984 4.416,-4.416 v -5.12 c 0,-2.432 -1.984,-4.416 -4.416,-4.416 z"
         style="font-style:normal;font-variant:normal;font-weight:bold;font-stretch:normal;font-size:32px;font-family:Orbitron;-inkscape-font-specification:'Orbitron Bold';text-align:center;text-anchor:middle"
         id="path3746"
         inkscape:connector-curvature="0" />
      <path
         d="m 466.61988,224.87016 c -2.432,0 -4.416,2.08 -4.416,4.512 v 13.984 c 0,2.432 1.984,4.544 4.416,4.544 h 13.984 c 2.432,0 4.416,-2.112 4.416,-4.544 v -13.984 c 0,-2.432 -1.984,-4.512 -4.416,-4.512 z m 12.32,4.288 -12.544,10.528 v -10.304 c 0,-0.128 0.096,-0.224 0.224,-0.224 z m -10.656,14.432 12.544,-10.528 v 10.304 c 0,0.128 -0.096,0.224 -0.224,0.224 z"
         style="font-style:normal;font-variant:normal;font-weight:bold;font-stretch:normal;font-size:32px;font-family:Orbitron;-inkscape-font-specification:'Orbitron Bold';text-align:center;text-anchor:middle"
         id="path3748"
         inkscape:connector-curvature="0" />
      <path
         d="m 168.13213,288.69416 c 0.096,0 0.192,0.064 0.192,0.192 v 4.608 c 0,0.128 -0.096,0.224 -0.192,0.224 h -18.464 c 0.416,2.368 2.272,4.192 4.448,4.192 h 14.016 c 2.432,0 4.384,-1.984 4.384,-4.416 v -14.208 c 0,-2.432 -1.952,-4.416 -4.384,-4.416 h -14.016 c -2.432,0 -4.416,1.984 -4.416,4.416 v 4.992 c 0,2.432 1.984,4.416 4.416,4.416 z m -14.208,-9.408 c 0,-0.128 0.064,-0.224 0.192,-0.224 h 14.016 c 0.096,0 0.192,0.096 0.192,0.224 v 5.184 h -14.208 c -0.128,0 -0.192,-0.096 -0.192,-0.192 z"
         style="font-style:normal;font-variant:normal;font-weight:bold;font-stretch:normal;font-size:32px;font-family:Orbitron;-inkscape-font-specification:'Orbitron Bold';text-align:center;text-anchor:middle"
         id="path3750"
         inkscape:connector-curvature="0" />
      <path
         d="m 180.77613,274.87016 c -2.432,0 -4.416,2.08 -4.416,4.512 v 13.984 c 0,2.432 1.984,4.544 4.416,4.544 h 13.984 c 2.432,0 4.416,-2.112 4.416,-4.544 v -13.984 c 0,-2.432 -1.984,-4.512 -4.416,-4.512 z m 12.32,4.288 -12.544,10.528 v -10.304 c 0,-0.128 0.096,-0.224 0.224,-0.224 z m -10.656,14.432 12.544,-10.528 v 10.304 c 0,0.128 -0.096,0.224 -0.224,0.224 z"
         style="font-style:normal;font-variant:normal;font-weight:bold;font-stretch:normal;font-size:32px;font-family:Orbitron;-inkscape-font-specification:'Orbitron Bold';text-align:center;text-anchor:middle"
         id="path3752"
         inkscape:connector-curvature="0" />
      <path
         d="m 220.10363,287.92616 v -13.056 h -3.936 l -14.752,13.312 v 3.936 h 14.496 v 5.792 h 4.192 v -5.792 h 3.232 v -4.192 z m -4.192,-6.464 v 6.464 h -7.968 z"
         style="font-style:normal;font-variant:normal;font-weight:bold;font-stretch:normal;font-size:32px;font-family:Orbitron;-inkscape-font-specification:'Orbitron Bold';text-align:center;text-anchor:middle"
         id="path3754"
         inkscape:connector-curvature="0" />
      <path
         d="m 224.63063,283.15816 h 5.536 c 0.576,-0.704 1.216,-1.408 1.856,-2.176 v 16.928 h 4.192 v -23.04 h -4.64 z"
         style="font-style:normal;font-variant:normal;font-weight:bold;font-stretch:normal;font-size:32px;font-family:Orbitron;-inkscape-font-specification:'Orbitron Bold';text-align:center;text-anchor:middle"
         id="path3756"
         inkscape:connector-curvature="0" />
      <path
         d="m 257.19463,288.69416 c 0.096,0 0.192,0.064 0.192,0.192 v 4.608 c 0,0.128 -0.096,0.224 -0.192,0.224 h -18.464 c 0.416,2.368 2.272,4.192 4.448,4.192 h 14.016 c 2.432,0 4.384,-1.984 4.384,-4.416 v -14.208 c 0,-2.432 -1.952,-4.416 -4.384,-4.416 h -14.016 c -2.432,0 -4.416,1.984 -4.416,4.416 v 4.992 c 0,2.432 1.984,4.416 4.416,4.416 z m -14.208,-9.408 c 0,-0.128 0.064,-0.224 0.192,-0.224 h 14.016 c 0.096,0 0.192,0.096 0.192,0.224 v 5.184 h -14.208 c -0.128,0 -0.192,-0.096 -0.192,-0.192 z"
         style="font-style:normal;font-variant:normal;font-weight:bold;font-stretch:normal;font-size:32px;font-family:Orbitron;-inkscape-font-specification:'Orbitron Bold';text-align:center;text-anchor:middle"
         id="path3758"
         inkscape:connector-curvature="0" />
      <path
         d="m 294.04963,291.76616 -14.176,-16.896 h -4.608 v 23.04 h 4.224 v -16.896 l 14.208,16.896 h 4.608 v -23.04 h -4.256 z"
         style="font-style:normal;font-variant:normal;font-weight:bold;font-stretch:normal;font-size:32px;font-family:Orbitron;-inkscape-font-specification:'Orbitron Bold';text-align:center;text-anchor:middle"
         id="path3760"
         inkscape:connector-curvature="0" />
      <path
         d="m 320.61063,293.46216 c 0,0.128 -0.096,0.224 -0.192,0.224 h -14.144 c -0.128,0 -0.224,-0.096 -0.224,-0.224 v -18.592 h -4.224 v 18.592 c 0,2.464 1.984,4.448 4.448,4.448 h 14.144 c 2.432,0 4.448,-1.984 4.448,-4.448 v -18.592 h -4.256 z"
         style="font-style:normal;font-variant:normal;font-weight:bold;font-stretch:normal;font-size:32px;font-family:Orbitron;-inkscape-font-specification:'Orbitron Bold';text-align:center;text-anchor:middle"
         id="path3762"
         inkscape:connector-curvature="0" />
      <path
         d="m 351.39863,279.35016 c 0,-2.432 -2.016,-4.448 -4.48,-4.448 h -18.56 v 23.008 h 4.224 v -7.904 h 0.096 7.456 l 6.656,7.904 h 4.608 v -1.088 l -5.728,-6.816 h 1.248 c 2.464,0 4.48,-2.016 4.48,-4.448 z m -18.592,6.432 c -0.128,0 -0.224,-0.096 -0.224,-0.224 v -6.208 c 0,-0.128 0.096,-0.224 0.224,-0.224 h 14.112 c 0.128,0 0.224,0.096 0.224,0.224 v 6.208 c 0,0.128 -0.096,0.224 -0.224,0.224 z"
         style="font-style:normal;font-variant:normal;font-weight:bold;font-stretch:normal;font-size:32px;font-family:Orbitron;-inkscape-font-specification:'Orbitron Bold';text-align:center;text-anchor:middle"
         id="path3764"
         inkscape:connector-curvature="0" />
      <path
         d="m 376.01363,274.87016 h -21.184 v 23.04 h 21.184 v -4.224 h -16.928 v -5.184 h 13.632 v -4.224 h -13.632 v -5.184 h 16.928 z"
         style="font-style:normal;font-variant:normal;font-weight:bold;font-stretch:normal;font-size:32px;font-family:Orbitron;-inkscape-font-specification:'Orbitron Bold';text-align:center;text-anchor:middle"
         id="path3766"
         inkscape:connector-curvature="0" />
      <path
         d="m 391.57013,284.85416 -8.384,-9.984 h -4.608 v 23.04 h 4.224 v -16.896 l 8.768,10.4 8.736,-10.4 v 16.896 h 4.256 v -23.04 h -4.64 z"
         style="font-style:normal;font-variant:normal;font-weight:bold;font-stretch:normal;font-size:32px;font-family:Orbitron;-inkscape-font-specification:'Orbitron Bold';text-align:center;text-anchor:middle"
         id="path3768"
         inkscape:connector-curvature="0" />
      <path
         d="m 430.47363,279.31816 c 0,-2.464 -2.016,-4.448 -4.448,-4.448 h -17.664 v 23.04 h 18.56 c 2.464,0 4.48,-1.984 4.48,-4.448 v -4.96 c 0,-1.152 -0.512,-2.272 -1.248,-3.04 0.224,-0.48 0.32,-1.024 0.32,-1.632 z m -4.448,-0.224 c 0.096,0 0.192,0.096 0.192,0.224 v 4.512 c 0,0.128 -0.096,0.224 -0.192,0.224 h -13.216 c -0.128,0 -0.224,-0.096 -0.224,-0.224 v -4.512 c 0,-0.128 0.096,-0.224 0.224,-0.224 z m 1.12,14.368 c 0,0.128 -0.096,0.224 -0.224,0.224 h -14.112 c -0.128,0 -0.224,-0.096 -0.224,-0.224 v -4.96 c 0,-0.128 0.096,-0.192 0.224,-0.192 h 14.112 c 0.128,0 0.224,0.064 0.224,0.192 z"
         style="font-style:normal;font-variant:normal;font-weight:bold;font-stretch:normal;font-size:32px;font-family:Orbitron;-inkscape-font-specification:'Orbitron Bold';text-align:center;text-anchor:middle"
         id="path3770"
         inkscape:connector-curvature="0" />
      <path
         d="m 456.13863,274.87016 h -21.184 v 23.04 h 21.184 v -4.224 h -16.928 v -5.184 h 13.632 v -4.224 h -13.632 v -5.184 h 16.928 z"
         style="font-style:normal;font-variant:normal;font-weight:bold;font-stretch:normal;font-size:32px;font-family:Orbitron;-inkscape-font-specification:'Orbitron Bold';text-align:center;text-anchor:middle"
         id="path3772"
         inkscape:connector-curvature="0" />
      <path
         d="m 482.39863,279.35016 c 0,-2.432 -2.016,-4.448 -4.48,-4.448 h -18.56 v 23.008 h 4.224 v -7.904 h 0.096 7.456 l 6.656,7.904 h 4.608 v -1.088 l -5.728,-6.816 h 1.248 c 2.464,0 4.48,-2.016 4.48,-4.448 z m -18.592,6.432 c -0.128,0 -0.224,-0.096 -0.224,-0.224 v -6.208 c 0,-0.128 0.096,-0.224 0.224,-0.224 h 14.112 c 0.128,0 0.224,0.096 0.224,0.224 v 6.208 c 0,0.128 -0.096,0.224 -0.224,0.224 z"
         style="font-style:normal;font-variant:normal;font-weight:bold;font-stretch:normal;font-size:32px;font-family:Orbitron;-inkscape-font-specification:'Orbitron Bold';text-align:center;text-anchor:middle"
         id="path3774"
         inkscape:connector-curvature="0" />
      <path
         d="m 508.80563,279.31816 c 0,-2.464 -2.016,-4.448 -4.48,-4.448 h -14.112 c -2.464,0 -4.448,1.984 -4.448,4.448 v 14.144 c 0,2.464 1.984,4.448 4.448,4.448 h 14.112 c 2.464,0 4.48,-1.984 4.48,-4.448 v -8.576 h -9.472 v 4.224 h 5.216 v 4.352 c 0,0.128 -0.096,0.224 -0.224,0.224 h -14.112 c -0.128,0 -0.224,-0.096 -0.224,-0.224 v -14.144 c 0,-0.128 0.096,-0.224 0.224,-0.224 h 14.112 c 0.128,0 0.224,0.096 0.224,0.224 v 1.792 h 4.256 z"
         style="font-style:normal;font-variant:normal;font-weight:bold;font-stretch:normal;font-size:32px;font-family:Orbitron;-inkscape-font-specification:'Orbitron Bold';text-align:center;text-anchor:middle"
         id="path3776"
         inkscape:connector-curvature="0" />
      <path
         d="m 179.61438,329.31816 c 0,-2.464 -2.016,-4.448 -4.448,-4.448 h -14.144 c -2.464,0 -4.448,1.984 -4.448,4.448 v 4.736 c 0,2.464 1.984,4.448 4.448,4.448 h 14.144 c 0.096,0 0.192,0.096 0.192,0.224 v 4.736 c 0,0.128 -0.096,0.224 -0.192,0.224 h -14.144 c -0.128,0 -0.224,-0.096 -0.224,-0.224 v -1.76 h -4.224 v 1.76 c 0,2.464 1.984,4.448 4.448,4.448 h 14.144 c 2.432,0 4.448,-1.984 4.448,-4.448 v -4.736 c 0,-2.464 -2.016,-4.448 -4.448,-4.448 h -14.144 c -0.128,0 -0.224,-0.096 -0.224,-0.224 v -4.736 c 0,-0.128 0.096,-0.224 0.224,-0.224 h 14.144 c 0.096,0 0.192,0.096 0.192,0.224 v 1.76 h 4.256 z"
         style="font-style:normal;font-variant:normal;font-weight:bold;font-stretch:normal;font-size:32px;font-family:Orbitron;-inkscape-font-specification:'Orbitron Bold';text-align:center;text-anchor:middle"
         id="path3778"
         inkscape:connector-curvature="0" />
      <path
         d="m 187.43088,324.87016 c -2.464,0 -4.448,1.984 -4.448,4.448 v 14.144 c 0,2.464 1.984,4.448 4.448,4.448 h 14.144 c 2.432,0 4.448,-1.984 4.448,-4.448 v -14.144 c 0,-2.464 -2.016,-4.448 -4.448,-4.448 z m 0,18.816 c -0.128,0 -0.224,-0.096 -0.224,-0.224 v -14.144 c 0,-0.128 0.096,-0.224 0.224,-0.224 h 14.144 c 0.096,0 0.192,0.096 0.192,0.224 v 14.144 c 0,0.128 -0.096,0.224 -0.192,0.224 z"
         style="font-style:normal;font-variant:normal;font-weight:bold;font-stretch:normal;font-size:32px;font-family:Orbitron;-inkscape-font-specification:'Orbitron Bold';text-align:center;text-anchor:middle"
         id="path3780"
         inkscape:connector-curvature="0" />
      <path
         d="m 209.61088,324.87016 v 23.04 h 4.256 v -9.408 h 13.632 v -4.224 h -13.632 v -5.184 h 16.928 v -4.224 z"
         style="font-style:normal;font-variant:normal;font-weight:bold;font-stretch:normal;font-size:32px;font-family:Orbitron;-inkscape-font-specification:'Orbitron Bold';text-align:center;text-anchor:middle"
         id="path3782"
         inkscape:connector-curvature="0" />
      <path
         d="m 232.14488,324.87016 v 4.224 h 9.408 v 18.816 h 4.256 v -18.816 h 9.376 v -4.224 z"
         style="font-style:normal;font-variant:normal;font-weight:bold;font-stretch:normal;font-size:32px;font-family:Orbitron;-inkscape-font-specification:'Orbitron Bold';text-align:center;text-anchor:middle"
         id="path3784"
         inkscape:connector-curvature="0" />
      <path
         d="m 270.60138,334.85416 -8.384,-9.984 h -4.608 v 23.04 h 4.224 v -16.896 l 8.768,10.4 8.736,-10.4 v 16.896 h 4.256 v -23.04 h -4.64 z"
         style="font-style:normal;font-variant:normal;font-weight:bold;font-stretch:normal;font-size:32px;font-family:Orbitron;-inkscape-font-specification:'Orbitron Bold';text-align:center;text-anchor:middle"
         id="path3786"
         inkscape:connector-curvature="0" />
      <path
         d="m 291.80888,324.87016 c -2.464,0 -4.448,1.984 -4.448,4.448 v 18.592 h 4.224 v -7.744 h 14.56 v 7.744 h 4.256 v -18.592 c 0,-2.464 -2.016,-4.448 -4.48,-4.448 z m -0.224,11.072 v -6.624 c 0,-0.128 0.096,-0.224 0.224,-0.224 h 14.112 c 0.128,0 0.224,0.096 0.224,0.224 v 6.624 z"
         style="font-style:normal;font-variant:normal;font-weight:bold;font-stretch:normal;font-size:32px;font-family:Orbitron;-inkscape-font-specification:'Orbitron Bold';text-align:center;text-anchor:middle"
         id="path3788"
         inkscape:connector-curvature="0" />
      <path
         d="m 331.64688,324.87016 c -2.528,3.072 -5.312,6.336 -7.872,9.408 h -5.44 v -9.408 h -4.256 v 23.04 h 4.256 v -9.408 h 5.44 l 7.872,9.408 h 4.64 v -1.12 l -8.704,-10.4 8.704,-10.4 v -1.12 z"
         style="font-style:normal;font-variant:normal;font-weight:bold;font-stretch:normal;font-size:32px;font-family:Orbitron;-inkscape-font-specification:'Orbitron Bold';text-align:center;text-anchor:middle"
         id="path3790"
         inkscape:connector-curvature="0" />
      <path
         d="m 360.79488,324.87016 h -21.184 v 23.04 h 21.184 v -4.224 h -16.928 v -5.184 h 13.632 v -4.224 h -13.632 v -5.184 h 16.928 z"
         style="font-style:normal;font-variant:normal;font-weight:bold;font-stretch:normal;font-size:32px;font-family:Orbitron;-inkscape-font-specification:'Orbitron Bold';text-align:center;text-anchor:middle"
         id="path3792"
         inkscape:connector-curvature="0" />
      <path
         d="m 387.05488,329.35016 c 0,-2.432 -2.016,-4.448 -4.48,-4.448 h -18.56 v 23.008 h 4.224 v -7.904 h 0.096 7.456 l 6.656,7.904 h 4.608 v -1.088 l -5.728,-6.816 h 1.248 c 2.464,0 4.48,-2.016 4.48,-4.448 z m -18.592,6.432 c -0.128,0 -0.224,-0.096 -0.224,-0.224 v -6.208 c 0,-0.128 0.096,-0.224 0.224,-0.224 h 14.112 c 0.128,0 0.224,0.096 0.224,0.224 v 6.208 c 0,0.128 -0.096,0.224 -0.224,0.224 z"
         style="font-style:normal;font-variant:normal;font-weight:bold;font-stretch:normal;font-size:32px;font-family:Orbitron;-inkscape-font-specification:'Orbitron Bold';text-align:center;text-anchor:middle"
         id="path3794"
         inkscape:connector-curvature="0" />
      <path
         d="m 423.33688,329.31816 c 0,-2.464 -2.016,-4.448 -4.48,-4.448 h -14.112 c -2.464,0 -4.448,1.984 -4.448,4.448 v 14.144 c 0,2.464 1.984,4.448 4.448,4.448 h 14.112 c 2.464,0 4.48,-1.984 4.48,-4.448 v -8.576 h -9.472 v 4.224 h 5.216 v 4.352 c 0,0.128 -0.096,0.224 -0.224,0.224 h -14.112 c -0.128,0 -0.224,-0.096 -0.224,-0.224 v -14.144 c 0,-0.128 0.096,-0.224 0.224,-0.224 h 14.112 c 0.128,0 0.224,0.096 0.224,0.224 v 1.792 h 4.256 z"
         style="font-style:normal;font-variant:normal;font-weight:bold;font-stretch:normal;font-size:32px;font-family:Orbitron;-inkscape-font-specification:'Orbitron Bold';text-align:center;text-anchor:middle"
         id="path3796"
         inkscape:connector-curvature="0" />
      <path
         d="m 449.80338,329.35016 h -23.008 v 18.56 h 4.192 v -14.144 c 0,-0.128 0.096,-0.224 0.224,-0.224 h 7.008 c 0.096,0 0.192,0.096 0.192,0.224 v 14.144 h 4.224 v -14.144 c 0,-0.128 0.064,-0.224 0.192,-0.224 h 6.976 c 0.16,0 0.256,0.096 0.256,0.224 v 14.144 h 4.16 v -14.144 c 0,-2.432 -1.984,-4.416 -4.416,-4.416 z"
         style="font-style:normal;font-variant:normal;font-weight:bold;font-stretch:normal;font-size:32px;font-family:Orbitron;-inkscape-font-specification:'Orbitron Bold';text-align:center;text-anchor:middle"
         id="path3798"
         inkscape:connector-curvature="0" />
      <path
         d="m 471.16488,329.35016 h -10.24 v -6.08 h -4.192 v 24.64 h 14.432 c 2.432,0 4.416,-1.984 4.416,-4.416 v -9.728 c 0,-2.432 -1.984,-4.416 -4.416,-4.416 z m 0.224,14.144 c 0,0.128 -0.096,0.224 -0.224,0.224 h -10.016 c -0.128,0 -0.224,-0.096 -0.224,-0.224 v -9.728 c 0,-0.128 0.096,-0.224 0.224,-0.224 h 10.016 c 0.128,0 0.224,0.096 0.224,0.224 z"
         style="font-style:normal;font-variant:normal;font-weight:bold;font-stretch:normal;font-size:32px;font-family:Orbitron;-inkscape-font-specification:'Orbitron Bold';text-align:center;text-anchor:middle"
         id="path3800"
         inkscape:connector-curvature="0" />
      <path
         d="m 497.53188,324.87016 v 9.408 h -15.104 v -9.408 h -4.224 v 23.04 h 4.224 v -9.408 h 15.104 v 9.408 h 4.224 v -23.04 z"
         style="font-style:normal;font-variant:normal;font-weight:bold;font-stretch:normal;font-size:32px;font-family:Orbitron;-inkscape-font-specification:'Orbitron Bold';text-align:center;text-anchor:middle"
         id="path3802"
         inkscape:connector-curvature="0" />
    </g>
    <text
       xml:space="preserve"
       style="font-style:normal;font-weight:normal;font-size:10.58333302px;line-height:1.25;font-family:sans-serif;letter-spacing:0px;word-spacing:0px;fill:#000000;fill-opacity:1;stroke:none;stroke-width:0.26458332"
       x="103.58202"
       y="49.197193"
       id="text3807"><tspan
         sodipodi:role="line"
         id="tspan3805"
         x="103.58202"
         y="58.560963"
         style="stroke-width:0.26458332"></tspan></text>
  </g>
</svg>
