<?xml version="1.0" encoding="UTF-8" standalone="no"?>
<!-- Created with Inkscape (http://www.inkscape.org/) -->

<svg
   xmlns:dc="http://purl.org/dc/elements/1.1/"
   xmlns:cc="http://creativecommons.org/ns#"
   xmlns:rdf="http://www.w3.org/1999/02/22-rdf-syntax-ns#"
   xmlns:svg="http://www.w3.org/2000/svg"
   xmlns="http://www.w3.org/2000/svg"
   xmlns:sodipodi="http://sodipodi.sourceforge.net/DTD/sodipodi-0.dtd"
   xmlns:inkscape="http://www.inkscape.org/namespaces/inkscape"
   width="210mm"
   height="297mm"
   viewBox="0 0 210 297"
   version="1.1"
   id="svg8"
   inkscape:version="0.92.1 r15371"
   sodipodi:docname="TEXTO LABEL GERMANY.svg">
  <defs
     id="defs2" />
  <sodipodi:namedview
     id="base"
     pagecolor="#ffffff"
     bordercolor="#666666"
     borderopacity="1.0"
     inkscape:pageopacity="0.0"
     inkscape:pageshadow="2"
     inkscape:zoom="1.979899"
     inkscape:cx="126.80363"
     inkscape:cy="1090.1127"
     inkscape:document-units="mm"
     inkscape:current-layer="flowRoot3680"
     showgrid="false"
     inkscape:window-width="1280"
     inkscape:window-height="971"
     inkscape:window-x="-8"
     inkscape:window-y="41"
     inkscape:window-maximized="1"
     inkscape:snap-text-baseline="true" />
  <metadata
     id="metadata5">
    <rdf:RDF>
      <cc:Work
         rdf:about="">
        <dc:format>image/svg+xml</dc:format>
        <dc:type
           rdf:resource="http://purl.org/dc/dcmitype/StillImage" />
        <dc:title />
      </cc:Work>
    </rdf:RDF>
  </metadata>
  <g
     inkscape:label="Layer 1"
     inkscape:groupmode="layer"
     id="layer1">
    <g
       aria-label="PABLO LANDÃBURU KIRCHENWEG 20 90419 NUREMBERG SOFTMAKER GmbH"
       transform="matrix(0.1569143,0,0,0.1569143,-22.313701,-26.214403)"
       style="font-style:normal;font-weight:normal;font-size:40px;line-height:1.25;font-family:sans-serif;letter-spacing:0px;word-spacing:0px;fill:#000000;fill-opacity:1;stroke:none"
       id="flowRoot3680">
      <g
         aria-label="GERMANY"
         style="font-style:normal;font-weight:normal;font-size:39.0585289px;line-height:1.25;font-family:sans-serif;letter-spacing:0px;word-spacing:0px;fill:#000000;fill-opacity:1;stroke:none;stroke-width:0.9764632"
         id="text3811">
        <path
           d="m 200.14829,205.08362 c 0,-3.2028 -2.61693,-5.78067 -5.81973,-5.78067 h -16.52175 c -3.2028,0 -5.78067,2.57787 -5.78067,5.78067 v 16.56081 c 0,3.2028 2.57787,5.78066 5.78067,5.78066 h 16.52175 c 3.2028,0 5.81973,-2.57786 5.81973,-5.78066 v -10.62392 h -12.22532 v 6.09313 h 6.09313 v 4.21832 h -15.93588 v -15.93588 h 15.93588 v 2.34352 h 6.13219 z"
           style="font-style:normal;font-variant:normal;font-weight:900;font-stretch:normal;font-family:Orbitron;-inkscape-font-specification:'Orbitron Heavy';stroke-width:0.9764632"
           id="path20" />
        <path
           d="m 230.49981,199.30295 h -25.97392 v 28.12214 h 25.97392 v -6.09313 h -19.84173 v -4.92137 h 15.97494 v -6.09313 h -15.97494 v -4.92138 h 19.84173 z"
           style="font-style:normal;font-variant:normal;font-weight:900;font-stretch:normal;font-family:Orbitron;-inkscape-font-specification:'Orbitron Heavy';stroke-width:0.9764632"
           id="path22" />
        <path
           d="m 262.43504,205.12267 c 0,-3.16374 -2.61692,-5.78066 -5.81972,-5.78066 H 234.3129 v 28.08308 h 6.05408 v -9.02252 c 0.039,0.0391 0.11717,0.0391 0.11717,0.0391 0,-0.15623 -0.0391,-0.23435 -0.11717,-0.23435 l 8.04605,-0.0391 7.77265,9.25687 h 6.24936 v -2.0701 c -1.95292,-2.34351 -4.10114,-4.84326 -6.09313,-7.18677 h 0.27341 c 3.2028,0 5.81972,-2.61692 5.81972,-5.78066 z m -22.06806,0.27341 h 15.93588 v 6.67901 h -15.93588 z"
           style="font-style:normal;font-variant:normal;font-weight:900;font-stretch:normal;font-family:Orbitron;-inkscape-font-specification:'Orbitron Heavy';stroke-width:0.9764632"
           id="path24" />
        <path
           d="m 282.32438,210.66899 -9.53029,-11.36604 h -6.24936 v 28.12214 h 6.05407 v -18.82621 l 9.72558,11.52227 c 3.12468,-3.6715 6.52277,-7.81171 9.68651,-11.56132 v 18.86526 h 6.09313 v -28.12214 h -6.28842 z"
           style="font-style:normal;font-variant:normal;font-weight:900;font-stretch:normal;font-family:Orbitron;-inkscape-font-specification:'Orbitron Heavy';stroke-width:0.9764632"
           id="path26" />
        <path
           d="m 308.63946,199.30295 c -3.2028,0 -5.78067,2.57787 -5.78067,5.78067 v 22.34147 h 6.05408 v -9.06157 h 15.93588 v 9.06157 h 6.13218 v -22.34147 c 0,-3.2028 -2.61692,-5.78067 -5.81972,-5.78067 z m 0.27341,12.96744 v -6.87431 h 15.93588 v 6.87431 z"
           style="font-style:normal;font-variant:normal;font-weight:900;font-stretch:normal;font-family:Orbitron;-inkscape-font-specification:'Orbitron Heavy';stroke-width:0.9764632"
           id="path28" />
        <path
           d="m 357.42111,218.05105 -15.74059,-18.7481 h -6.24936 v 28.12214 h 6.05407 v -18.82621 l 15.81871,18.82621 h 6.24936 v -28.12214 h -6.13219 z"
           style="font-style:normal;font-variant:normal;font-weight:900;font-stretch:normal;font-family:Orbitron;-inkscape-font-specification:'Orbitron Heavy';stroke-width:0.9764632"
           id="path30" />
        <path
           d="m 391.24703,199.30295 c -2.81222,3.59339 -5.9369,7.49924 -8.78817,11.09263 l -8.82723,-11.09263 h -7.22583 c 2.18728,3.00751 5.42914,7.46018 7.88982,10.7411 l 5.11667,6.8743 v 10.50674 h 6.09313 v -10.46768 l 13.04555,-17.65446 z"
           style="font-style:normal;font-variant:normal;font-weight:900;font-stretch:normal;font-family:Orbitron;-inkscape-font-specification:'Orbitron Heavy';stroke-width:0.9764632"
           id="path32" />
      </g>
    </g>
    <text
       xml:space="preserve"
       style="font-style:normal;font-weight:normal;font-size:10.58333302px;line-height:1.25;font-family:sans-serif;letter-spacing:0px;word-spacing:0px;fill:#000000;fill-opacity:1;stroke:none;stroke-width:0.26458332"
       x="103.58202"
       y="49.197193"
       id="text3807"><tspan
         sodipodi:role="line"
         id="tspan3805"
         x="103.58202"
         y="58.560963"
         style="stroke-width:0.26458332" /></text>
  </g>
</svg>
